<svg width="105" height="105" viewBox="0 0 105 105" fill="none" xmlns="http://www.w3.org/2000/svg">
<g clip-path="url(#clip0_3736_106549)">
<rect width="105" height="105" fill="white"/>
<rect width="105" height="105" rx="8" fill="#E4007F"/>
<mask id="mask0_3736_106549" style="mask-type:alpha" maskUnits="userSpaceOnUse" x="4" y="41" width="97" height="22">
<rect x="4.98438" y="41.6501" width="95.0309" height="20.6998" fill="#D9D9D9"/>
</mask>
<g mask="url(#mask0_3736_106549)">
<path d="M7.97362 48.2057C7.97362 51.1312 9.46824 52.9456 12.8309 52.9456C13.9476 52.951 15.0578 52.776 16.1176 52.4273L16.4167 54.205C15.2379 54.4818 14.0392 54.6678 12.8313 54.7612C7.30149 54.7612 4.98438 52.3181 4.98438 48.2057C4.98438 44.798 7.7493 41.6501 12.8313 41.6501C13.997 41.692 15.1582 41.8157 16.3062 42.0203L15.9697 43.9087C14.9482 43.5591 13.8742 43.3838 12.7935 43.3904C9.43085 43.3908 7.97362 45.3147 7.97362 48.2057Z" fill="white"/>
<path d="M29.0121 54.6114H31.7023L26.3594 41.7613H23.4835L18.1016 54.6114H20.493L21.5768 51.834H27.8914L29.0121 54.6114ZM22.3237 49.9826L24.7887 43.6132L27.2176 49.9826H22.3237Z" fill="white"/>
<path d="M73.7404 54.6114H76.4305L71.0876 41.7613H68.2118L62.8672 54.6114H65.2961L66.3798 51.834H72.6944L73.7404 54.6114ZM67.0894 49.9826L69.5544 43.6132L71.9832 49.9826H67.0894Z" fill="white"/>
<path d="M41.4548 54.6114H44.5562V41.7613H42.3516V51.7599L36.4479 41.7613H33.2344V54.6114H35.4389V44.5016L41.4548 54.6114Z" fill="white"/>
<path d="M55.356 51.2786L57.8592 44.5016L59.3165 54.6114H61.6332L59.8004 41.7613H56.886L54.3449 48.6866L51.769 41.7613H48.8545L47.0234 54.6114H49.3401L50.7974 44.5016L53.301 51.2786H55.356Z" fill="white"/>
<path d="M80.3507 41.7613H77.9219V54.6114H80.3507V41.7613Z" fill="white"/>
<path d="M80.2812 47.9459L85.6632 54.5747H89.0259L82.9353 47.9459L88.6512 41.7613H85.6246L80.2812 47.9459Z" fill="white"/>
<path d="M99.8505 43.502V41.7984L90.8828 41.7613V54.6114H99.8505V52.9082H93.3117V48.7603H98.7298V47.1316H93.3117V43.502H99.8505Z" fill="white"/>
<path d="M45.3833 58.0923H43.7765V62.2048H43.1788V58.0923H41.6094V57.5369H45.3833V58.0923Z" fill="white"/>
<path d="M54.8292 62.2031H54.0819L52.2882 60.1294L51.84 60.6107V62.2031H51.2422V57.5369H51.84V59.98L54.0445 57.5369H54.7544L52.7368 59.7218L54.8292 62.2031Z" fill="white"/>
<path d="M58.6428 57.5369L57.0734 60.166V62.2019H56.4756V60.2393L54.9062 57.5369H55.5788L56.7743 59.6107L58.0068 57.5369H58.6428Z" fill="white"/>
<path d="M49.4472 60.7955C49.3514 61.0383 49.1976 61.2543 48.999 61.425C48.8488 61.5697 48.671 61.6831 48.476 61.7585C48.0915 61.9066 47.6649 61.9066 47.2804 61.7585C47.1058 61.6818 46.9425 61.5821 46.7948 61.4621C46.5921 61.2721 46.4274 61.046 46.3092 60.7955C46.1991 60.5124 46.1482 60.2099 46.1597 59.9067C46.1514 59.6157 46.2023 59.326 46.3092 59.0549C46.4141 58.8063 46.5663 58.58 46.7574 58.3883C46.9075 58.2437 47.0854 58.1303 47.2804 58.0548C47.6649 57.9068 48.0915 57.9068 48.476 58.0548C48.6506 58.1315 48.8139 58.2312 48.9616 58.3513C49.1857 58.5519 49.3531 58.8071 49.4472 59.0915C49.5512 59.3763 49.6018 59.6775 49.5967 59.9804C49.6201 60.2601 49.5685 60.5411 49.4472 60.7947M50.0449 58.8692C49.9293 58.5648 49.7512 58.2876 49.522 58.0548C49.3247 57.8525 49.0812 57.7001 48.812 57.6106C48.5254 57.5046 48.221 57.4543 47.9152 57.4624C47.5949 57.4666 47.2782 57.5295 46.9809 57.6477C46.6912 57.7542 46.4338 57.9327 46.2336 58.166C46.0052 58.3852 45.8269 58.6504 45.7106 58.9437C45.5914 59.2509 45.5281 59.5767 45.5237 59.9059C45.5184 60.2758 45.595 60.6425 45.748 60.98C45.872 61.2785 46.0638 61.5446 46.3084 61.7577C46.5215 61.9398 46.7608 62.0895 47.0183 62.2019C47.574 62.3993 48.1816 62.3993 48.7373 62.2019C49.0152 62.0905 49.2689 61.9271 49.4846 61.7206C49.7172 61.5049 49.8962 61.2387 50.0076 60.9429C50.1481 60.6157 50.212 60.2611 50.1945 59.9059C50.2398 59.5531 50.1881 59.1952 50.0449 58.8692Z" fill="white"/>
<path d="M62.6425 60.7955C62.5467 61.0383 62.3929 61.2543 62.1943 61.425C62.0442 61.5697 61.8663 61.6831 61.6713 61.7585C61.2868 61.9066 60.8602 61.9066 60.4757 61.7585C60.3011 61.6818 60.1378 61.5821 59.9901 61.4621C59.7874 61.2721 59.6227 61.046 59.5045 60.7955C59.3944 60.5124 59.3435 60.2099 59.355 59.9067C59.3467 59.6157 59.3976 59.326 59.5045 59.0549C59.6094 58.8063 59.7616 58.58 59.9527 58.3883C60.1029 58.2437 60.2807 58.1303 60.4757 58.0548C60.8602 57.9068 61.2868 57.9068 61.6713 58.0548C61.8459 58.1315 62.0092 58.2312 62.1569 58.3513C62.381 58.5519 62.5484 58.8071 62.6425 59.0915C62.7465 59.3763 62.7972 59.6775 62.792 59.9804C62.8154 60.2601 62.7638 60.5411 62.6425 60.7947M63.2403 58.8692C63.1246 58.5649 62.9465 58.2876 62.7173 58.0548C62.52 57.8525 62.2765 57.7001 62.0073 57.6106C61.7208 57.5046 61.4163 57.4543 61.1105 57.4624C60.7902 57.4666 60.4735 57.5295 60.1762 57.6477C59.8865 57.7542 59.6292 57.9327 59.4289 58.166C59.2005 58.3852 59.0222 58.6504 58.9059 58.9437C58.7867 59.2509 58.7234 59.5767 58.719 59.9059C58.7137 60.2758 58.7903 60.6425 58.9433 60.98C59.0673 61.2785 59.2591 61.5446 59.5037 61.7577C59.7169 61.9398 59.9561 62.0895 60.2136 62.2019C60.7693 62.3993 61.3769 62.3993 61.9326 62.2019C62.2105 62.0905 62.4643 61.9271 62.6799 61.7206C62.9125 61.5049 63.0915 61.2387 63.2029 60.9429C63.3434 60.6157 63.4073 60.2611 63.3898 59.9059C63.4351 59.5531 63.3834 59.1952 63.2403 58.8692Z" fill="white"/>
</g>
</g>
<defs>
<clipPath id="clip0_3736_106549">
<rect width="105" height="105" fill="white"/>
</clipPath>
</defs>
</svg>
