<svg width="182" height="41" viewBox="0 0 182 41" fill="none" xmlns="http://www.w3.org/2000/svg">
<path d="M5.7249 12.6892C5.7249 18.3521 8.58735 21.8641 15.0275 21.8641C17.1661 21.8747 19.2922 21.5358 21.322 20.8608L21.8948 24.3019C19.6371 24.8377 17.3414 25.1976 15.0282 25.3785C4.43766 25.3785 0 20.6496 0 12.6892C0 6.0932 5.29529 0 15.0282 0C17.2607 0.0810942 19.4845 0.320503 21.6832 0.71643L21.0388 4.37188C19.0824 3.69508 17.0256 3.35582 14.9559 3.36856C8.51574 3.36935 5.7249 7.09337 5.7249 12.6892Z" fill="#E4007F"/>
<path d="M46.0138 25.0884H51.1659L40.9334 0.215149H35.4256L25.1183 25.0884H29.6984L31.774 19.7124H43.8674L46.0138 25.0884ZM33.2044 16.1287L37.9253 3.79966L42.577 16.1287H33.2044Z" fill="#E4007F"/>
<path d="M131.672 25.0884H136.824L126.591 0.215149H121.084L110.848 25.0884H115.499L117.575 19.7124H129.669L131.672 25.0884ZM118.934 16.1287L123.655 3.79966L128.307 16.1287H118.934Z" fill="#E4007F"/>
<path d="M69.8436 25.0884H75.7833V0.215149H71.5612V19.569L60.2546 0.215149H54.1001V25.0884H58.3222V5.51941L69.8436 25.0884Z" fill="#E4007F"/>
<path d="M96.4642 18.6374L101.258 5.51941L104.049 25.0884H108.486L104.976 0.215149H99.3944L94.5279 13.62L89.5945 0.215149H84.0128L80.506 25.0884H84.9429L87.7337 5.51941L92.5286 18.6374H96.4642Z" fill="#E4007F"/>
<path d="M144.338 0.215149H139.686V25.0884H144.338V0.215149Z" fill="#E4007F"/>
<path d="M144.195 12.1864L154.503 25.0175H160.943L149.278 12.1864L160.225 0.215149H154.429L144.195 12.1864Z" fill="#E4007F"/>
<path d="M181.692 3.5845V0.286871L164.518 0.215149V25.0884H181.692V21.7916H169.169V13.7627H179.546V10.6101H169.169V3.5845H181.692Z" fill="#E4007F"/>
<path d="M77.3576 31.8264H74.2804V39.7867H73.1355V31.8264H70.1299V30.7513H77.3576V31.8264Z" fill="#0075BF"/>
<path d="M95.4621 39.7835H94.0309L90.5956 35.7695L89.7372 36.7011V39.7835H88.5924V30.7513H89.7372V35.4802L93.9593 30.7513H95.3189L91.4549 34.9805L95.4621 39.7835Z" fill="#0075BF"/>
<path d="M102.761 30.7513L99.7553 35.8404V39.7812H98.6105V35.9823L95.6049 30.7513H96.8929L99.1825 34.7654L101.543 30.7513H102.761Z" fill="#0075BF"/>
<path d="M85.1577 37.0589C84.9743 37.5287 84.6797 37.9468 84.2993 38.2774C84.0118 38.5574 83.6712 38.7769 83.2976 38.9229C82.5612 39.2095 81.7444 39.2095 81.008 38.9229C80.6736 38.7745 80.3608 38.5815 80.078 38.3491C79.6897 37.9814 79.3742 37.5437 79.148 37.0589C78.9371 36.5107 78.8397 35.9254 78.8616 35.3383C78.8458 34.7751 78.9432 34.2144 79.148 33.6895C79.3489 33.2083 79.6403 32.7703 80.0064 32.3993C80.2939 32.1193 80.6344 31.8998 81.008 31.7538C81.7444 31.4672 82.5612 31.4672 83.2976 31.7538C83.632 31.9022 83.9449 32.0952 84.2277 32.3276C84.6569 32.716 84.9774 33.2099 85.1577 33.7605C85.3568 34.3118 85.4539 34.8948 85.4441 35.481C85.4888 36.0225 85.39 36.5663 85.1577 37.0573M86.3025 33.3301C86.0809 32.741 85.7399 32.2043 85.3009 31.7538C84.9231 31.3621 84.4567 31.0672 83.9413 30.894C83.3924 30.6888 82.8093 30.5914 82.2236 30.6071C81.6103 30.6153 81.0037 30.7368 80.4344 30.9657C79.8795 31.1719 79.3866 31.5173 79.0032 31.969C78.5658 32.3934 78.2243 32.9067 78.0016 33.4744C77.7732 34.0691 77.6519 34.6996 77.6436 35.3368C77.6334 36.0529 77.7801 36.7626 78.0732 37.4159C78.3106 37.9937 78.6779 38.5088 79.1464 38.9213C79.5546 39.2738 80.0128 39.5635 80.506 39.7812C81.5702 40.1633 82.7339 40.1633 83.7981 39.7812C84.3304 39.5655 84.8163 39.2492 85.2293 38.8496C85.6748 38.432 86.0176 37.9167 86.2309 37.3442C86.5 36.7107 86.6224 36.0244 86.5889 35.3368C86.6756 34.654 86.5766 33.9612 86.3025 33.3301Z" fill="#0075BF"/>
<path d="M110.419 37.0589C110.236 37.5287 109.941 37.9468 109.56 38.2774C109.273 38.5574 108.932 38.7769 108.559 38.9229C107.822 39.2095 107.006 39.2095 106.269 38.9229C105.935 38.7745 105.622 38.5815 105.339 38.3491C104.951 37.9814 104.635 37.5437 104.409 37.0589C104.198 36.5107 104.101 35.9254 104.123 35.3383C104.107 34.7751 104.204 34.2144 104.409 33.6895C104.61 33.2083 104.902 32.7703 105.268 32.3993C105.555 32.1193 105.896 31.8998 106.269 31.7538C107.006 31.4672 107.822 31.4672 108.559 31.7538C108.893 31.9022 109.206 32.0952 109.489 32.3276C109.918 32.716 110.239 33.2099 110.419 33.7605C110.618 34.3118 110.715 34.8948 110.705 35.481C110.75 36.0225 110.651 36.5663 110.419 37.0573M111.564 33.3301C111.342 32.741 111.001 32.2043 110.562 31.7538C110.184 31.3621 109.718 31.0672 109.202 30.894C108.654 30.6888 108.07 30.5914 107.485 30.6071C106.872 30.6153 106.265 30.7368 105.696 30.9657C105.141 31.1719 104.648 31.5173 104.264 31.969C103.827 32.3934 103.485 32.9067 103.263 33.4744C103.034 34.0691 102.913 34.6996 102.905 35.3368C102.895 36.0529 103.041 36.7626 103.334 37.4159C103.572 37.9937 103.939 38.5088 104.408 38.9213C104.816 39.2738 105.274 39.5635 105.767 39.7812C106.831 40.1633 107.995 40.1633 109.059 39.7812C109.592 39.5655 110.078 39.2492 110.491 38.8496C110.936 38.432 111.279 37.9167 111.492 37.3442C111.761 36.7107 111.884 36.0244 111.85 35.3368C111.937 34.654 111.838 33.9613 111.564 33.3301Z" fill="#0075BF"/>
</svg>
